<svg xmlns="http://www.w3.org/2000/svg" xmlns:xlink="http://www.w3.org/1999/xlink" xmlns:lucid="lucid" width="1062" height="793"><g transform="translate(-159 492)" lucid:page-tab-id="rL4X.TZDiUiT"><path d="M180-.56V-34a6 6 0 0 1 6-6h394V-.56zM580-40h614a6 6 0 0 1 6 6V-.56H580z" stroke="#fff" stroke-width="2"/><path d="M580 117.78H186a6 6 0 0 1-6-6V-.56h400zM1200-.56v112.34a6 6 0 0 1-6 6H580V-.56z" stroke="#fff" stroke-width="2" fill="none"/><use xlink:href="#a" transform="matrix(1,0,0,1,180,-40) translate(155.98958333333334 27.994791666666664)"/><use xlink:href="#b" transform="matrix(1,0,0,1,580,-40) translate(238.10546875 27.994791666666664)"/><use xlink:href="#c" transform="matrix(1,0,0,1,580,-40) translate(315.68359375 27.994791666666664)"/><path d="M570-490c-11.05 0-20 8.95-20 20v120c0 11.05-8.95 20-20 20 11.05 0 20 8.95 20 20v120c0 11.05 8.95 20 20 20m240 0c11.05 0 20-8.95 20-20v-120c0-11.05 8.95-20 20-20-11.05 0-20-8.95-20-20v-120c0-11.05-8.95-20-20-20" stroke="#000" stroke-width="4" fill="none"/><path d="M260 26a6 6 0 0 1 6-6h228a6 6 0 0 1 6 6v48a6 6 0 0 1-6 6H266a6 6 0 0 1-6-6z" fill="none"/><use xlink:href="#d" transform="matrix(1,0,0,1,260,20) translate(-69.69726562499997 36.662326388888886)"/><path d="M580 26a6 6 0 0 1 6-6h608a6 6 0 0 1 6 6v236.6a6 6 0 0 1-6 6H586a6 6 0 0 1-6-6z" fill="#14171a"/><path d="M580 26a6 6 0 0 1 6-6h608a6 6 0 0 1 6 6v236.6a6 6 0 0 1-6 6H586a6 6 0 0 1-6-6z" stroke="#000" stroke-opacity="0" stroke-width="3" fill="none"/><use xlink:href="#e" transform="matrix(1,0,0,1,620.1759999999999,30) translate(0 13.936376953125002)"/><use xlink:href="#f" transform="matrix(1,0,0,1,620.1759999999999,30) translate(0 32.899658203125)"/><use xlink:href="#g" transform="matrix(1,0,0,1,620.1759999999999,30) translate(20.091269531250003 32.899658203125)"/><use xlink:href="#h" transform="matrix(1,0,0,1,620.1759999999999,30) translate(160.73015625 32.899658203125)"/><use xlink:href="#i" transform="matrix(1,0,0,1,620.1759999999999,30) translate(40.186 51.86293945312501)"/><use xlink:href="#j" transform="matrix(1,0,0,1,620.1759999999999,30) translate(160.7336171875 51.86293945312501)"/><use xlink:href="#k" transform="matrix(1,0,0,1,620.1759999999999,30) translate(40.186 70.826220703125)"/><use xlink:href="#l" transform="matrix(1,0,0,1,620.1759999999999,30) translate(210.96179101562504 70.826220703125)"/><use xlink:href="#m" transform="matrix(1,0,0,1,620.1759999999999,30) translate(40.186 89.78950195312501)"/><use xlink:href="#n" transform="matrix(1,0,0,1,620.1759999999999,30) translate(120.551078125 89.78950195312501)"/><use xlink:href="#o" transform="matrix(1,0,0,1,620.1759999999999,30) translate(221.00742578125 89.78950195312501)"/><use xlink:href="#f" transform="matrix(1,0,0,1,620.1759999999999,30) translate(0 108.752783203125)"/><use xlink:href="#p" transform="matrix(1,0,0,1,620.1759999999999,30) translate(20.091269531250003 108.752783203125)"/><use xlink:href="#f" transform="matrix(1,0,0,1,620.1759999999999,30) translate(0 127.716064453125)"/><use xlink:href="#q" transform="matrix(1,0,0,1,620.1759999999999,30) translate(20.091269531250003 127.716064453125)"/><use xlink:href="#h" transform="matrix(1,0,0,1,620.1759999999999,30) translate(221.00396484375005 127.716064453125)"/><use xlink:href="#r" transform="matrix(1,0,0,1,620.1759999999999,30) translate(40.186 146.679345703125)"/><use xlink:href="#s" transform="matrix(1,0,0,1,620.1759999999999,30) translate(180.82488671875 146.679345703125)"/><use xlink:href="#t" transform="matrix(1,0,0,1,620.1759999999999,30) translate(40.186 165.642626953125)"/><use xlink:href="#u" transform="matrix(1,0,0,1,620.1759999999999,30) translate(170.779251953125 165.642626953125)"/><use xlink:href="#f" transform="matrix(1,0,0,1,620.1759999999999,30) translate(0 184.60590820312498)"/><use xlink:href="#v" transform="matrix(1,0,0,1,620.1759999999999,30) translate(20.091269531250003 184.60590820312498)"/><use xlink:href="#w" transform="matrix(1,0,0,1,620.1759999999999,30) translate(0 203.56918945312498)"/><g><use xlink:href="#x" transform="matrix(1,0,0,1,590.044,30) translate(10.954365234374999 13.936376953125002)"/><use xlink:href="#y" transform="matrix(1,0,0,1,590.044,30) translate(10.954365234374999 32.899658203125)"/><use xlink:href="#z" transform="matrix(1,0,0,1,590.044,30) translate(10.954365234374999 51.86293945312501)"/><use xlink:href="#A" transform="matrix(1,0,0,1,590.044,30) translate(10.954365234374999 70.826220703125)"/><use xlink:href="#B" transform="matrix(1,0,0,1,590.044,30) translate(10.954365234374999 89.78950195312501)"/><use xlink:href="#C" transform="matrix(1,0,0,1,590.044,30) translate(10.954365234374999 108.752783203125)"/><use xlink:href="#D" transform="matrix(1,0,0,1,590.044,30) translate(10.954365234374999 127.716064453125)"/><use xlink:href="#E" transform="matrix(1,0,0,1,590.044,30) translate(10.954365234374999 146.679345703125)"/><use xlink:href="#F" transform="matrix(1,0,0,1,590.044,30) translate(10.954365234374999 165.642626953125)"/><use xlink:href="#G" transform="matrix(1,0,0,1,590.044,30) translate(0.9087304687499973 184.60590820312498)"/><use xlink:href="#H" transform="matrix(1,0,0,1,590.044,30) translate(0.9087304687499973 203.56918945312498)"/><use xlink:href="#I" transform="matrix(1,0,0,1,590.044,30) translate(0 222.53247070312497)"/></g><path d="M160-54a6 6 0 0 1 6-6h1048a6 6 0 0 1 6 6v348a6 6 0 0 1-6 6H166a6 6 0 0 1-6-6z" stroke="#000" stroke-width="2" fill-opacity="0"/><path d="M765-258c0 9.94-33.58 18-75 18s-75-8.06-75-18v-144c0-9.94 33.58-18 75-18s75 8.06 75 18z" stroke="#000" stroke-width="2"/><path d="M765-402c0 9.94-33.58 18-75 18s-75-8.06-75-18" stroke="#000" stroke-width="2" fill="none"/><g><use xlink:href="#J" transform="matrix(1,0,0,1,620,-379) translate(4.66796875 57.1171875)"/><use xlink:href="#K" transform="matrix(1,0,0,1,620,-379) translate(16.93359375 97.1171875)"/></g><path d="M690-237v153.26" stroke="#000" stroke-width="4" fill="none"/><path d="M690-239l1.98-.04v2.1H688v-2.12z" stroke="#000" stroke-width=".05"/><path d="M690-67.47l-4.63-14.27h9.26z" stroke="#000" stroke-width="4"/><path d="M284.24-325.76a6 6 0 0 1 0-8.48l8.1-8.1a1.55 1.55 0 0 1 2.66 1.1 3.75 3.75 0 0 0 3.75 3.74h172.5a3.75 3.75 0 0 0 3.75-3.75 1.55 1.55 0 0 1 2.65-1.1l8.1 8.1a6 6 0 0 1 0 8.5l-8.1 8.1a1.55 1.55 0 0 1-2.65-1.1 3.75 3.75 0 0 0-3.75-3.75h-172.5a3.75 3.75 0 0 0-3.75 3.75 1.55 1.55 0 0 1-2.65 1.1z" stroke="#000" stroke-width="2"/><path d="M265-314a6 6 0 0 1 6-6h228a6 6 0 0 1 6 6v48a6 6 0 0 1-6 6H271a6 6 0 0 1-6-6z" fill="none"/><g><use xlink:href="#L" transform="matrix(1,0,0,1,265,-320) translate(81.93033854166666 53.32031250000001)"/></g><defs><path fill="#fff" d="M127 0v-1460h297V0H127" id="M"/><path fill="#fff" d="M536-288c29-68 31-351-2-422-37-78-144-83-178 1-30 76-28 341 4 416 37 88 140 91 176 5zM352-991c109 0 162 67 211 149v-708h262V0H563v-143C518-51 461 20 344 20c-90 0-156-46-209-132-95-155-96-595 2-748 54-85 122-131 215-131" id="N"/><path fill="#fff" d="M600-574c-4-123-33-210-145-210-107 0-144 91-144 211zM446-999c304 0 402 243 392 581H311c-2 130 36 236 150 236 75 0 108-49 131-113h233C789-114 654 18 446 18 183 18 47-207 47-489c0-285 135-510 399-510" id="O"/><path fill="#fff" d="M618-991c189 0 205 101 205 321V0H553v-594c-3-95-8-147-88-147-84 0-98 62-98 159V0H96v-981h252v152c62-93 134-162 270-162" id="P"/><path fill="#fff" d="M127 0v-770H20v-211h107v-283h270v283h107v211H397V0H127" id="Q"/><path fill="#fff" d="M242-1090c-87 0-156-67-156-153 0-87 69-158 156-158 83 0 155 74 155 158 0 83-71 153-155 153zM106 0v-981h271V0H106" id="R"/><path fill="#fff" d="M512-1328c-126-3-119 35-119 181v166h119v207H393V0H123v-774H25v-207h98v-260c-23-263 142-358 389-317v230" id="S"/><path fill="#fff" d="M573-741c-191 4-202 64-202 280V0H100v-981h252v174c38-109 95-185 221-192v258" id="T"/><g id="a"><use transform="matrix(0.013020833333333334,0,0,0.013020833333333334,0,0)" xlink:href="#M"/><use transform="matrix(0.013020833333333334,0,0,0.013020833333333334,7.200520833333334,0)" xlink:href="#N"/><use transform="matrix(0.013020833333333334,0,0,0.013020833333333334,19.283854166666668,0)" xlink:href="#O"/><use transform="matrix(0.013020833333333334,0,0,0.013020833333333334,30.703125,0)" xlink:href="#P"/><use transform="matrix(0.013020833333333334,0,0,0.013020833333333334,42.6171875,0)" xlink:href="#Q"/><use transform="matrix(0.013020833333333334,0,0,0.013020833333333334,49.466145833333336,0)" xlink:href="#R"/><use transform="matrix(0.013020833333333334,0,0,0.013020833333333334,55.755208333333336,0)" xlink:href="#S"/><use transform="matrix(0.013020833333333334,0,0,0.013020833333333334,62.65625,0)" xlink:href="#R"/><use transform="matrix(0.013020833333333334,0,0,0.013020833333333334,68.9453125,0)" xlink:href="#O"/><use transform="matrix(0.013020833333333334,0,0,0.013020833333333334,80.36458333333333,0)" xlink:href="#T"/></g><path fill="#fff" d="M381-483h194c-42-214-73-436-96-674-30 225-63 450-98 674zM-8 0l340-1460h305L961 0H670l-49-256H328L283 0H-8" id="U"/><path fill="#fff" d="M428-999c73 0 131 15 186 38v259c-36-26-69-46-122-46-118 0-170 118-170 250 0 142 50 252 178 252 52 0 84-21 114-51v258C564-4 506 18 428 18 174 18 53-213 53-492c0-276 123-507 375-507" id="V"/><path fill="#fff" d="M344-290c51 92 171 92 222 0 47-86 47-320 0-406-51-92-171-93-222-1-47 85-47 323 0 407zm111-709c265 0 409 225 409 507 0 284-143 510-409 510C188 18 47-207 47-492c0-284 142-506 408-507" id="W"/><path fill="#fff" d="M451-219c82 0 96-40 96-131v-631h264c-10 281 38 757-77 901-52 66-146 98-281 98-136 0-230-33-283-98-116-142-68-621-78-901h264v631c2 93 12 131 95 131" id="X"/><g id="b"><use transform="matrix(0.013020833333333334,0,0,0.013020833333333334,0,0)" xlink:href="#U"/><use transform="matrix(0.013020833333333334,0,0,0.013020833333333334,12.395833333333334,0)" xlink:href="#V"/><use transform="matrix(0.013020833333333334,0,0,0.013020833333333334,20.872395833333336,0)" xlink:href="#V"/><use transform="matrix(0.013020833333333334,0,0,0.013020833333333334,29.348958333333336,0)" xlink:href="#W"/><use transform="matrix(0.013020833333333334,0,0,0.013020833333333334,41.184895833333336,0)" xlink:href="#X"/><use transform="matrix(0.013020833333333334,0,0,0.013020833333333334,52.942708333333336,0)" xlink:href="#P"/><use transform="matrix(0.013020833333333334,0,0,0.013020833333333334,64.85677083333334,0)" xlink:href="#Q"/></g><path fill="#fff" d="M403-270c255 5 342-187 342-455 0-159-26-276-79-353-57-81-141-120-263-116v924zm-38-1190c466 2 671 254 671 731-1 301-78 490-252 620C664-19 557-1 334 0H115v-1460h250" id="Y"/><path fill="#fff" d="M542-292c32-74 35-337-2-413-39-78-148-89-184-3-31 75-28 339 4 414 38 90 144 89 182 2zM352-991c115 0 166 72 219 160v-150h254V0H571v-145C523-57 464 18 350 18c-93 0-161-45-214-130-95-152-97-596 2-748 55-85 122-131 214-131" id="Z"/><path fill="#fff" d="M106 0v-1550h271V0H106" id="aa"/><path fill="#fff" d="M637-303C645-62 396 80 156-7 111-24 68-49 27-84l112-199c53 33 90 60 154 64 40 2 73-31 72-70 0-35-34-71-100-114C147-480 57-535 51-700c-9-236 223-350 457-278 44 14 88 34 129 63L522-721c-42-34-77-62-135-65-41-2-74 25-74 65 0 29 33 60 93 100 127 85 225 142 231 318" id="ab"/><g id="c"><use transform="matrix(0.013020833333333334,0,0,0.013020833333333334,0,0)" xlink:href="#Y"/><use transform="matrix(0.013020833333333334,0,0,0.013020833333333334,14.348958333333334,0)" xlink:href="#O"/><use transform="matrix(0.013020833333333334,0,0,0.013020833333333334,25.768229166666668,0)" xlink:href="#Q"/><use transform="matrix(0.013020833333333334,0,0,0.013020833333333334,32.6171875,0)" xlink:href="#Z"/><use transform="matrix(0.013020833333333334,0,0,0.013020833333333334,44.700520833333336,0)" xlink:href="#R"/><use transform="matrix(0.013020833333333334,0,0,0.013020833333333334,50.989583333333336,0)" xlink:href="#aa"/><use transform="matrix(0.013020833333333334,0,0,0.013020833333333334,57.278645833333336,0)" xlink:href="#ab"/></g><path d="M561-121c192 1 299-135 299-334 0-194-118-342-305-342-193 0-299 131-299 330 0 210 102 346 305 346zm-41-827c168 2 277 82 336 203v-170h156v899c-2 180-10 239-86 325-80 90-203 136-369 137-261 2-439-121-446-364h176c-4 158 109 229 272 227 209-3 301-103 301-329v-154C799-58 690 27 528 29 259 32 90-182 90-461c0-281 160-489 430-487" id="ac"/><path d="M621-793c-189 0-312 146-312 340 0 203 111 341 307 340 198 0 299-151 299-360 0-192-106-320-294-320zm22 832c-161-2-272-90-334-205V0H160v-1550h155v807c63-122 164-203 334-205 271-3 432 211 432 493 0 280-167 497-438 494" id="ad"/><path d="M618-797c-196-1-307 139-307 342 0 195 120 340 310 340 187 0 294-128 294-321 0-209-99-361-297-361zm31 836c-170-2-271-83-334-205v612H160V-915h149v172c61-117 171-203 334-205 271-3 438 213 438 493 0 284-160 497-432 494" id="ae"/><path d="M328-653c-65 0-119-54-119-119 0-63 56-119 119-119s118 56 118 119c0 65-53 119-118 119zm0 671c-64 0-119-54-119-118s55-117 119-117c63 0 118 54 118 117 0 64-54 118-118 118" id="af"/><path d="M717-1497h137L135 190H0" id="ag"/><path d="M580-113c123-4 197-44 282-104v182c-79 48-183 72-307 74C274 42 84-166 84-449c0-282 199-503 477-499 110 2 207 25 285 63v168c-70-45-150-79-254-80-205-3-340 146-340 353 0 183 145 336 328 331" id="ah"/><path d="M559 39c-272 0-417-147-416-420v-534h164v450c4 237 42 354 256 354 215 0 254-115 254-354v-450h160v534c1 275-143 420-418 420" id="ai"/><path d="M758-252C762-73 610 42 424 39 242 36 131-32 63-154l134-90c45 87 112 144 233 146 93 2 175-50 172-138-3-98-81-116-170-148C210-463 98-557 98-672c0-169 147-276 324-276 160 0 279 69 326 182l-127 78c-33-77-105-129-209-131-86-1-157 55-156 137 0 56 61 101 182 141 177 58 316 92 320 289" id="aj"/><path d="M184-786H16v-129h168v-369h160v369h168v129H344V0H184v-786" id="ak"/><path d="M584-801c-182 0-332 161-332 346 0 184 151 346 332 346s329-162 329-346-148-346-329-346zM123-266c-51-115-51-265 0-380 74-170 225-302 461-302 233 0 386 135 460 304 51 116 51 263 0 378C969-98 816 39 584 39 350 39 197-98 123-266" id="al"/><path d="M1264-948c202-3 325 123 325 325V0h-155v-539c0-174-62-274-228-274-131 0-217 73-246 182-8 32-12 85-12 158V0H797v-539c0-174-62-274-228-274-129 0-219 70-247 179-8 31-11 84-11 161V0H160v-915h153v141c68-105 160-174 318-174 157 0 258 72 307 186 70-111 162-184 326-186" id="am"/><path d="M809-561c-9-159-111-252-279-252-155 0-266 107-278 252h557zM537-950c287 0 454 210 440 516H252C243-237 369-88 555-92c152-3 232-87 297-199l119 80C889-63 759 36 547 39 267 43 80-175 80-461c0-274 188-489 457-489" id="an"/><path d="M565-805c-189 0-248 148-248 359V0H162v-915h139v190c75-133 133-221 307-221 41 0 74 7 106 18l-52 141c-31-10-60-18-97-18" id="ao"/><path d="M141-535h467v158H141v-158" id="ap"/><path d="M831-539c0-177-68-274-239-274-138 0-231 70-264 180-8 31-13 84-13 160V0H160v-915h153v141c71-106 170-172 334-174 210-2 344 119 344 325V0H831v-539" id="aq"/><path d="M561-117c192 1 299-133 299-332 0-194-118-344-305-344-193 0-299 131-299 330 0 210 102 346 305 346zm-41-831c172 2 274 82 336 205v-172h156V0H860v-166C797-49 691 37 528 39 258 43 90-175 90-455c0-282 159-495 430-493" id="ar"/><path d="M1042-1001c131 2 208 60 250 157l58-121h110c-50 204-101 405-150 612-30 129 107 149 207 102 176-82 290-270 293-515 4-374-319-596-714-590-399 6-654 214-783 488-88 186-100 471-11 658 114 238 369 398 722 398 254 0 471-78 631-188l45 66c-174 129-382 218-660 221-423 4-712-182-852-457-93-183-96-453-24-661 84-242 276-436 498-536 215-97 516-120 765-47 202 59 356 191 443 354 92 173 86 414 4 590-85 182-235 342-494 349-129 4-208-51-196-178-59 101-152 177-297 178-207 2-314-121-314-332 0-281 202-552 469-548zM713-446c0 138 64 229 196 229 151 0 260-123 293-256l60-242c-19-108-89-190-207-190-211 0-342 229-342 459" id="as"/><path d="M162 0v-1550h157v1050l441-415h209L512-496 1010 0H791L319-483V0H162" id="at"/><path d="M301 18c-64 0-119-52-119-116 0-63 56-119 119-119 64 0 121 54 121 119 0 64-56 116-121 116" id="au"/><g id="d"><use transform="matrix(0.010850694444444444,0,0,0.010850694444444444,0,0)" xlink:href="#ac"/><use transform="matrix(0.010850694444444444,0,0,0.010850694444444444,12.684461805555555,0)" xlink:href="#ad"/><use transform="matrix(0.010850694444444444,0,0,0.010850694444444444,25.390625,0)" xlink:href="#ae"/><use transform="matrix(0.010850694444444444,0,0,0.010850694444444444,38.09678819444444,0)" xlink:href="#af"/><use transform="matrix(0.010850694444444444,0,0,0.010850694444444444,45.182291666666664,0)" xlink:href="#ag"/><use transform="matrix(0.010850694444444444,0,0,0.010850694444444444,54.44878472222222,0)" xlink:href="#ag"/><use transform="matrix(0.010850694444444444,0,0,0.010850694444444444,63.71527777777778,0)" xlink:href="#ah"/><use transform="matrix(0.010850694444444444,0,0,0.010850694444444444,73.69791666666667,0)" xlink:href="#ai"/><use transform="matrix(0.010850694444444444,0,0,0.010850694444444444,85.85069444444444,0)" xlink:href="#aj"/><use transform="matrix(0.010850694444444444,0,0,0.010850694444444444,94.90017361111111,0)" xlink:href="#ak"/><use transform="matrix(0.010850694444444444,0,0,0.010850694444444444,100.65104166666666,0)" xlink:href="#al"/><use transform="matrix(0.010850694444444444,0,0,0.010850694444444444,113.29210069444444,0)" xlink:href="#am"/><use transform="matrix(0.010850694444444444,0,0,0.010850694444444444,132.13975694444446,0)" xlink:href="#an"/><use transform="matrix(0.010850694444444444,0,0,0.010850694444444444,143.56553819444446,0)" xlink:href="#ao"/><use transform="matrix(0.010850694444444444,0,0,0.010850694444444444,150.57508680555554,0)" xlink:href="#ap"/><use transform="matrix(0.010850694444444444,0,0,0.010850694444444444,158.71310763888889,0)" xlink:href="#aq"/><use transform="matrix(0.010850694444444444,0,0,0.010850694444444444,171.09375,0)" xlink:href="#ar"/><use transform="matrix(0.010850694444444444,0,0,0.010850694444444444,183.73480902777777,0)" xlink:href="#am"/><use transform="matrix(0.010850694444444444,0,0,0.010850694444444444,202.58246527777777,0)" xlink:href="#an"/><use transform="matrix(0.010850694444444444,0,0,0.010850694444444444,214.00824652777777,0)" xlink:href="#as"/><use transform="matrix(0.010850694444444444,0,0,0.010850694444444444,236.23046875,0)" xlink:href="#ad"/><use transform="matrix(0.010850694444444444,0,0,0.010850694444444444,248.93663194444449,0)" xlink:href="#ar"/><use transform="matrix(0.010850694444444444,0,0,0.010850694444444444,261.57769097222223,0)" xlink:href="#aq"/><use transform="matrix(0.010850694444444444,0,0,0.010850694444444444,273.9583333333333,0)" xlink:href="#at"/><use transform="matrix(0.010850694444444444,0,0,0.010850694444444444,284.0169270833333,0)" xlink:href="#ap"/><use transform="matrix(0.010850694444444444,0,0,0.010850694444444444,292.15494791666663,0)" xlink:href="#aq"/><use transform="matrix(0.010850694444444444,0,0,0.010850694444444444,304.5355902777777,0)" xlink:href="#ar"/><use transform="matrix(0.010850694444444444,0,0,0.010850694444444444,317.1766493055555,0)" xlink:href="#am"/><use transform="matrix(0.010850694444444444,0,0,0.010850694444444444,336.0243055555555,0)" xlink:href="#an"/><use transform="matrix(0.010850694444444444,0,0,0.010850694444444444,347.4500868055555,0)" xlink:href="#au"/><use transform="matrix(0.010850694444444444,0,0,0.010850694444444444,354.00390624999994,0)" xlink:href="#ac"/><use transform="matrix(0.010850694444444444,0,0,0.010850694444444444,366.6883680555555,0)" xlink:href="#ad"/></g><path fill="#e6e6e6" d="M677 91c1 136 41 195 171 195h213v139H796c-186-8-294-116-294-303v-351c-3-164-120-222-275-232v-137c155-10 275-69 275-231v-352c6-189 106-303 294-303h265v139H848c-126-3-171 67-171 195v346c-5 158-108 234-231 274 128 36 231 115 231 274V91" id="av"/><use transform="matrix(0.008173828125000001,0,0,0.008173828125000001,0,0)" xlink:href="#av" id="e"/><path fill="#e6e6e6" d="M908-845H766l-40-639h224zm-449 0H318l-41-639h224" id="aw"/><path fill="#e6e6e6" d="M528 20c-247 0-343-132-343-381v-721h180v686c-4 177 45 284 224 277 194-8 279-136 279-336v-627h181c3 360-6 732 6 1082H885c-4-54-7-126-8-185h-3C809-64 714 20 528 20" id="ax"/><path fill="#e6e6e6" d="M914 0L548-499l-132 98V0H236v-1484h180v927l475-525h211L663-617 1125 0H914" id="ay"/><path fill="#e6e6e6" d="M473-1349c438-1 655 221 652 661C1122-268 945-8 532 0H162v-1349h311zm42 1193c308-4 416-205 418-532 2-330-131-509-459-505H353v1037h162" id="az"/><path fill="#e6e6e6" d="M615-1102c343 0 484 203 482 560-1 347-147 562-488 562-336 0-475-219-479-562-4-349 156-560 485-560zm-8 989c240 0 301-180 301-429 0-245-55-427-290-427-236 0-299 181-299 427 0 243 61 429 288 429" id="aA"/><path fill="#e6e6e6" d="M904-1102c199 0 220 177 220 381V0H956v-686c-3-114 0-215-60-264-70-33-125-4-158 71-26 56-39 140-39 252V0H531v-686c-3-114-1-215-61-264-78-41-136 24-157 84-24 69-39 159-39 259V0H105c-3-360 6-732-6-1082h149c6 50 3 123 8 175 36-100 83-195 216-195 135 0 166 79 196 196 42-105 93-196 236-196" id="aB"/><path fill="#e6e6e6" d="M617-1102c355 0 481 238 477 599H322c5 222 84 388 301 388 144 0 244-59 284-166l158 45C1002-72 854 20 623 20c-342 0-490-220-490-568 0-346 151-554 484-554zm291 461c-18-192-90-328-289-328-194 0-287 128-295 328h584" id="aC"/><path fill="#e6e6e6" d="M873-819c-18-114-119-146-250-146-163 0-245 50-245 151 0 151 170 148 294 185 182 54 388 94 388 320 0 240-189 325-439 329-245 4-410-69-454-268l159-31c24 133 136 168 295 165 144-2 270-31 270-171 0-164-195-160-331-202-167-52-350-87-350-299 0-218 173-315 413-313 220 2 373 77 412 260" id="aD"/><path fill="#e6e6e6" d="M682 16c-209 0-323-80-324-285v-671H190v-142h170l58-282h120v282h432v142H538v652c2 114 60 155 182 155 106 0 209-16 297-34v137C921-4 806 16 682 16" id="aE"/><path fill="#e6e6e6" d="M745-142h380V0H143v-142h422v-798H246v-142h499v940zM545-1292v-192h200v192H545" id="aF"/><path fill="#e6e6e6" d="M631 20c-350 0-501-215-501-562 0-355 162-560 502-560 250 0 399 118 446 323l-192 14c-23-124-109-196-262-196-242 0-305 171-305 415 1 245 61 427 304 427 151 0 248-77 267-215l190 12C1039-107 883 20 631 20" id="aG"/><path fill="#e6e6e6" d="M496 0v-299h235V0H496zm0-783v-299h235v299H496" id="aH"/><g id="g"><use transform="matrix(0.008173828125000001,0,0,0.008173828125000001,0,0)" xlink:href="#aw"/><use transform="matrix(0.008173828125000001,0,0,0.008173828125000001,10.045634765625001,0)" xlink:href="#ax"/><use transform="matrix(0.008173828125000001,0,0,0.008173828125000001,20.091269531250003,0)" xlink:href="#ay"/><use transform="matrix(0.008173828125000001,0,0,0.008173828125000001,30.136904296875002,0)" xlink:href="#az"/><use transform="matrix(0.008173828125000001,0,0,0.008173828125000001,40.182539062500005,0)" xlink:href="#aA"/><use transform="matrix(0.008173828125000001,0,0,0.008173828125000001,50.22817382812501,0)" xlink:href="#aB"/><use transform="matrix(0.008173828125000001,0,0,0.008173828125000001,60.27380859375001,0)" xlink:href="#aC"/><use transform="matrix(0.008173828125000001,0,0,0.008173828125000001,70.31944335937501,0)" xlink:href="#aD"/><use transform="matrix(0.008173828125000001,0,0,0.008173828125000001,80.36507812500001,0)" xlink:href="#aE"/><use transform="matrix(0.008173828125000001,0,0,0.008173828125000001,90.410712890625,0)" xlink:href="#aF"/><use transform="matrix(0.008173828125000001,0,0,0.008173828125000001,100.45634765625,0)" xlink:href="#aG"/><use transform="matrix(0.008173828125000001,0,0,0.008173828125000001,110.501982421875,0)" xlink:href="#aw"/><use transform="matrix(0.008173828125000001,0,0,0.008173828125000001,120.5476171875,0)" xlink:href="#aH"/></g><use transform="matrix(0.008173828125000001,0,0,0.008173828125000001,0,0)" xlink:href="#av" id="h"/><path fill="#e6e6e6" d="M839-1102c70 0 148 7 206 17v167c-112-18-268-36-363 15-129 69-208 203-208 395V0H294c-10-367 32-789-52-1082h171c21 75 41 161 48 250h5c67-152 152-270 373-270" id="aI"/><path fill="#e6e6e6" d="M650-1214c-281 0-336 244-336 533 0 295 60 546 347 546 188 0 263-142 322-282l159 65C1058-155 935 20 659 20c-401 0-546-295-546-701 0-407 135-689 536-689 264 0 391 146 466 335l-168 65c-47-129-127-244-297-244" id="aJ"/><path fill="#e6e6e6" d="M865-914c-3-187-2-380-2-570h180v1261c0 76 1 155 6 223H877c-8-49-9-116-10-174h-5C801-44 708 26 530 26c-135 0-234-46-297-139s-95-232-95-419c0-377 131-566 392-566 176 0 271 63 335 184zm-286-51c-222 0-255 197-255 427 0 229 31 425 253 425 237 0 286-195 286-441 0-238-52-411-284-411" id="aK"/><g id="i"><use transform="matrix(0.008173828125000001,0,0,0.008173828125000001,0,0)" xlink:href="#aw"/><use transform="matrix(0.008173828125000001,0,0,0.008173828125000001,10.045634765625001,0)" xlink:href="#aD"/><use transform="matrix(0.008173828125000001,0,0,0.008173828125000001,20.091269531250003,0)" xlink:href="#aA"/><use transform="matrix(0.008173828125000001,0,0,0.008173828125000001,30.136904296875002,0)" xlink:href="#aI"/><use transform="matrix(0.008173828125000001,0,0,0.008173828125000001,40.182539062500005,0)" xlink:href="#aE"/><use transform="matrix(0.008173828125000001,0,0,0.008173828125000001,50.22817382812501,0)" xlink:href="#aJ"/><use transform="matrix(0.008173828125000001,0,0,0.008173828125000001,60.27380859375001,0)" xlink:href="#aA"/><use transform="matrix(0.008173828125000001,0,0,0.008173828125000001,70.31944335937501,0)" xlink:href="#aK"/><use transform="matrix(0.008173828125000001,0,0,0.008173828125000001,80.36507812500001,0)" xlink:href="#aC"/><use transform="matrix(0.008173828125000001,0,0,0.008173828125000001,90.410712890625,0)" xlink:href="#aw"/><use transform="matrix(0.008173828125000001,0,0,0.008173828125000001,100.45634765625,0)" xlink:href="#aH"/></g><path fill="#19f9d8" d="M908-845H766l-40-639h224zm-449 0H318l-41-639h224" id="aL"/><path fill="#19f9d8" d="M148-1120c216-7 379-89 463-229h166v1204h353V0H157v-145h439v-1021c-79 124-254 184-448 194v-148" id="aM"/><path fill="#19f9d8" d="M611-1370c266 0 451 106 451 368 0 147-77 243-154 327-132 144-316 255-451 395-42 44-75 87-96 134h723V0H144v-117c124-264 387-411 582-603 73-72 151-147 151-271 0-161-104-231-266-231-163 0-249 90-268 238l-184-17c35-233 185-369 452-369" id="aN"/><path fill="#19f9d8" d="M334-464v-160h560v160H334" id="aO"/><path fill="#19f9d8" d="M1060-1016c0 191-128 285-295 323v4c154 18 262 91 313 209 14 35 21 72 21 110 0 277-194 390-478 390-292 0-457-129-493-382l186-17c24 161 121 250 307 250 172 1 298-80 291-247-8-208-220-239-446-233v-156c217 9 409-34 409-232 0-152-102-225-264-225-159 0-264 88-278 233l-181-14c33-239 196-367 461-367 264 0 447 102 447 354" id="aP"/><path fill="#19f9d8" d="M937-319V0H757v-319H103v-140l635-890h199v888h188v142H937zm-180-835L257-461h500v-693" id="aQ"/><path fill="#19f9d8" d="M353-779c69-51 166-92 291-90 218 3 357 100 423 255 21 52 32 109 32 170 0 305-189 464-500 464-268 0-424-116-471-335l182-21c35 130 124 212 293 209 198-4 309-114 309-313 0-182-118-282-305-282-120 0-198 45-262 101H169l47-728h801v145H382" id="aR"/><path fill="#19f9d8" d="M672-881c271 0 424 163 424 435 0 291-160 466-455 466-367 0-490-287-490-662 0-324 85-568 293-680 129-70 351-59 460 16 73 50 125 123 153 223l-172 31c-31-108-107-172-232-172-259 0-316 252-323 529 59-113 178-186 342-186zm-37 756c186 0 278-124 278-313s-96-304-284-304c-163 0-281 93-281 261 0 157 65 270 168 327 35 19 75 29 119 29" id="aS"/><path fill="#e6e6e6" d="M259 363l169-662h265L382 363H259" id="aT"/><g id="j"><use transform="matrix(0.008173828125000001,0,0,0.008173828125000001,0,0)" xlink:href="#aL"/><use transform="matrix(0.008173828125000001,0,0,0.008173828125000001,10.045634765625001,0)" xlink:href="#aM"/><use transform="matrix(0.008173828125000001,0,0,0.008173828125000001,20.091269531250003,0)" xlink:href="#aN"/><use transform="matrix(0.008173828125000001,0,0,0.008173828125000001,30.136904296875002,0)" xlink:href="#aO"/><use transform="matrix(0.008173828125000001,0,0,0.008173828125000001,40.182539062500005,0)" xlink:href="#aP"/><use transform="matrix(0.008173828125000001,0,0,0.008173828125000001,50.22817382812501,0)" xlink:href="#aQ"/><use transform="matrix(0.008173828125000001,0,0,0.008173828125000001,60.27380859375001,0)" xlink:href="#aO"/><use transform="matrix(0.008173828125000001,0,0,0.008173828125000001,70.31944335937501,0)" xlink:href="#aR"/><use transform="matrix(0.008173828125000001,0,0,0.008173828125000001,80.36507812500001,0)" xlink:href="#aS"/><use transform="matrix(0.008173828125000001,0,0,0.008173828125000001,90.410712890625,0)" xlink:href="#aL"/><use transform="matrix(0.008173828125000001,0,0,0.008173828125000001,100.45634765625,0)" xlink:href="#aT"/></g><path fill="#e6e6e6" d="M1000-272c3 95 12 159 101 161 21 0 41-3 59-7V-6c-44 10-86 16-139 16-141 2-191-84-197-217h-6C748-76 648 20 446 20c-207 0-318-120-318-322 0-266 194-348 454-354l236-4c12-191-40-305-222-305-140 0-220 47-232 172l-188-17c33-204 181-292 423-292 255 0 401 118 401 364v466zm-683-27c0 109 63 184 175 182 166-3 259-96 306-217 24-65 20-120 20-200-232 7-501-28-501 235" id="aU"/><path fill="#e6e6e6" d="M706-1102c241 0 344 136 343 381V0H868v-695c1-168-57-273-220-268-190 6-283 138-283 336V0H185c-3-360 6-732-6-1082h170c4 54 7 126 8 185h3c63-121 164-204 346-205" id="aV"/><path fill="#e6e6e6" d="M912-211c-10-84-18-177-18-274v-864h172V0H836L316-1130c7 79 16 167 16 254V0H162v-1349h222" id="aW"/><path fill="#e6e6e6" d="M365-904c58-129 161-200 334-200 130 0 228 46 293 138s98 233 98 420c0 189-34 331-102 425S824 20 698 20c-170 0-275-64-336-184 0 55-3 116-9 164H179c5-68 6-147 6-223v-1261h180c-2 193 4 394-4 580h4zm283 791c221 0 256-197 256-427 0-229-34-425-254-425-236 0-285 195-285 441 0 237 53 411 283 411" id="aX"/><g id="k"><use transform="matrix(0.008173828125000001,0,0,0.008173828125000001,0,0)" xlink:href="#aw"/><use transform="matrix(0.008173828125000001,0,0,0.008173828125000001,10.045634765625001,0)" xlink:href="#aU"/><use transform="matrix(0.008173828125000001,0,0,0.008173828125000001,20.091269531250003,0)" xlink:href="#aG"/><use transform="matrix(0.008173828125000001,0,0,0.008173828125000001,30.136904296875002,0)" xlink:href="#aG"/><use transform="matrix(0.008173828125000001,0,0,0.008173828125000001,40.182539062500005,0)" xlink:href="#aA"/><use transform="matrix(0.008173828125000001,0,0,0.008173828125000001,50.22817382812501,0)" xlink:href="#ax"/><use transform="matrix(0.008173828125000001,0,0,0.008173828125000001,60.27380859375001,0)" xlink:href="#aV"/><use transform="matrix(0.008173828125000001,0,0,0.008173828125000001,70.31944335937501,0)" xlink:href="#aE"/><use transform="matrix(0.008173828125000001,0,0,0.008173828125000001,80.36507812500001,0)" xlink:href="#aW"/><use transform="matrix(0.008173828125000001,0,0,0.008173828125000001,90.410712890625,0)" xlink:href="#ax"/><use transform="matrix(0.008173828125000001,0,0,0.008173828125000001,100.45634765625,0)" xlink:href="#aB"/><use transform="matrix(0.008173828125000001,0,0,0.008173828125000001,110.501982421875,0)" xlink:href="#aX"/><use transform="matrix(0.008173828125000001,0,0,0.008173828125000001,120.5476171875,0)" xlink:href="#aC"/><use transform="matrix(0.008173828125000001,0,0,0.008173828125000001,130.593251953125,0)" xlink:href="#aI"/><use transform="matrix(0.008173828125000001,0,0,0.008173828125000001,140.63888671875,0)" xlink:href="#aw"/><use transform="matrix(0.008173828125000001,0,0,0.008173828125000001,150.684521484375,0)" xlink:href="#aH"/></g><path fill="#19f9d8" d="M1069-1210C890-948 720-664 634-316c-25 105-38 210-38 316H408c9-385 153-667 302-925 57-98 120-190 185-279H158v-145h911v139" id="aY"/><path fill="#19f9d8" d="M809-709c168 33 285 134 285 331 0 277-191 398-480 398-287 0-481-120-481-396 0-192 118-296 281-331v-4c-145-39-248-139-248-313 0-238 192-346 444-346 211 0 357 75 422 217 19 41 27 86 27 131 0 172-101 274-250 309v4zm-197-70c168 0 260-73 260-233 0-158-100-224-262-224-160 0-260 68-260 224 0 155 97 232 262 233zm4 664c194 1 291-91 291-280 0-172-115-249-297-249-178 0-291 85-291 253 0 186 106 275 297 276" id="aZ"/><path fill="#19f9d8" d="M141-911c0-296 172-459 469-459 157 0 276 55 356 166s121 278 121 501c-1 324-87 567-297 677-134 70-367 56-475-22-71-52-117-126-145-226l172-27c34 111 103 176 238 176 187 0 261-138 304-298 16-65 24-141 25-227-59 121-177 199-350 199-275 0-418-184-418-460zm461 318c168 0 289-96 289-269 0-158-59-275-163-332-36-20-77-30-124-30-187 0-280 125-280 313s90 318 278 318" id="ba"/><g id="l"><use transform="matrix(0.008173828125000001,0,0,0.008173828125000001,0,0)" xlink:href="#aL"/><use transform="matrix(0.008173828125000001,0,0,0.008173828125000001,10.045634765625001,0)" xlink:href="#aM"/><use transform="matrix(0.008173828125000001,0,0,0.008173828125000001,20.091269531250003,0)" xlink:href="#aN"/><use transform="matrix(0.008173828125000001,0,0,0.008173828125000001,30.136904296875002,0)" xlink:href="#aP"/><use transform="matrix(0.008173828125000001,0,0,0.008173828125000001,40.182539062500005,0)" xlink:href="#aQ"/><use transform="matrix(0.008173828125000001,0,0,0.008173828125000001,50.22817382812501,0)" xlink:href="#aR"/><use transform="matrix(0.008173828125000001,0,0,0.008173828125000001,60.27380859375001,0)" xlink:href="#aS"/><use transform="matrix(0.008173828125000001,0,0,0.008173828125000001,70.31944335937501,0)" xlink:href="#aY"/><use transform="matrix(0.008173828125000001,0,0,0.008173828125000001,80.36507812500001,0)" xlink:href="#aZ"/><use transform="matrix(0.008173828125000001,0,0,0.008173828125000001,90.410712890625,0)" xlink:href="#ba"/><use transform="matrix(0.008173828125000001,0,0,0.008173828125000001,100.45634765625,0)" xlink:href="#aL"/><use transform="matrix(0.008173828125000001,0,0,0.008173828125000001,110.501982421875,0)" xlink:href="#aT"/></g><g id="m"><use transform="matrix(0.008173828125000001,0,0,0.008173828125000001,0,0)" xlink:href="#aw"/><use transform="matrix(0.008173828125000001,0,0,0.008173828125000001,10.045634765625001,0)" xlink:href="#aV"/><use transform="matrix(0.008173828125000001,0,0,0.008173828125000001,20.091269531250003,0)" xlink:href="#aU"/><use transform="matrix(0.008173828125000001,0,0,0.008173828125000001,30.136904296875002,0)" xlink:href="#aB"/><use transform="matrix(0.008173828125000001,0,0,0.008173828125000001,40.182539062500005,0)" xlink:href="#aC"/><use transform="matrix(0.008173828125000001,0,0,0.008173828125000001,50.22817382812501,0)" xlink:href="#aw"/><use transform="matrix(0.008173828125000001,0,0,0.008173828125000001,60.27380859375001,0)" xlink:href="#aH"/></g><path fill="#19f9d8" d="M650-1214c-281 0-336 244-336 533 0 295 60 546 347 546 188 0 263-142 322-282l159 65C1058-155 935 20 659 20c-401 0-546-295-546-701 0-407 135-689 536-689 264 0 391 146 466 335l-168 65c-47-129-127-244-297-244" id="bb"/><path fill="#19f9d8" d="M528 20c-247 0-343-132-343-381v-721h180v686c-4 177 45 284 224 277 194-8 279-136 279-336v-627h181c3 360-6 732 6 1082H885c-4-54-7-126-8-185h-3C809-64 714 20 528 20" id="bc"/><path fill="#19f9d8" d="M873-819c-18-114-119-146-250-146-163 0-245 50-245 151 0 151 170 148 294 185 182 54 388 94 388 320 0 240-189 325-439 329-245 4-410-69-454-268l159-31c24 133 136 168 295 165 144-2 270-31 270-171 0-164-195-160-331-202-167-52-350-87-350-299 0-218 173-315 413-313 220 2 373 77 412 260" id="bd"/><path fill="#19f9d8" d="M682 16c-209 0-323-80-324-285v-671H190v-142h170l58-282h120v282h432v142H538v652c2 114 60 155 182 155 106 0 209-16 297-34v137C921-4 806 16 682 16" id="be"/><path fill="#19f9d8" d="M615-1102c343 0 484 203 482 560-1 347-147 562-488 562-336 0-475-219-479-562-4-349 156-560 485-560zm-8 989c240 0 301-180 301-429 0-245-55-427-290-427-236 0-299 181-299 427 0 243 61 429 288 429" id="bf"/><path fill="#19f9d8" d="M904-1102c199 0 220 177 220 381V0H956v-686c-3-114 0-215-60-264-70-33-125-4-158 71-26 56-39 140-39 252V0H531v-686c-3-114-1-215-61-264-78-41-136 24-157 84-24 69-39 159-39 259V0H105c-3-360 6-732-6-1082h149c6 50 3 123 8 175 36-100 83-195 216-195 135 0 166 79 196 196 42-105 93-196 236-196" id="bg"/><path fill="#19f9d8" d="M617-1102c355 0 481 238 477 599H322c5 222 84 388 301 388 144 0 244-59 284-166l158 45C1002-72 854 20 623 20c-342 0-490-220-490-568 0-346 151-554 484-554zm291 461c-18-192-90-328-289-328-194 0-287 128-295 328h584" id="bh"/><path fill="#19f9d8" d="M839-1102c70 0 148 7 206 17v167c-112-18-268-36-363 15-129 69-208 203-208 395V0H294c-10-367 32-789-52-1082h171c21 75 41 161 48 250h5c67-152 152-270 373-270" id="bi"/><g id="n"><use transform="matrix(0.008173828125000001,0,0,0.008173828125000001,0,0)" xlink:href="#aL"/><use transform="matrix(0.008173828125000001,0,0,0.008173828125000001,10.045634765625001,0)" xlink:href="#bb"/><use transform="matrix(0.008173828125000001,0,0,0.008173828125000001,20.091269531250003,0)" xlink:href="#bc"/><use transform="matrix(0.008173828125000001,0,0,0.008173828125000001,30.136904296875002,0)" xlink:href="#bd"/><use transform="matrix(0.008173828125000001,0,0,0.008173828125000001,40.182539062500005,0)" xlink:href="#be"/><use transform="matrix(0.008173828125000001,0,0,0.008173828125000001,50.22817382812501,0)" xlink:href="#bf"/><use transform="matrix(0.008173828125000001,0,0,0.008173828125000001,60.27380859375001,0)" xlink:href="#bg"/><use transform="matrix(0.008173828125000001,0,0,0.008173828125000001,70.31944335937501,0)" xlink:href="#bh"/><use transform="matrix(0.008173828125000001,0,0,0.008173828125000001,80.36507812500001,0)" xlink:href="#bi"/></g><path fill="#19f9d8" d="M912-211c-10-84-18-177-18-274v-864h172V0H836L316-1130c7 79 16 167 16 254V0H162v-1349h222" id="bj"/><path fill="#19f9d8" d="M1000-272c3 95 12 159 101 161 21 0 41-3 59-7V-6c-44 10-86 16-139 16-141 2-191-84-197-217h-6C748-76 648 20 446 20c-207 0-318-120-318-322 0-266 194-348 454-354l236-4c12-191-40-305-222-305-140 0-220 47-232 172l-188-17c33-204 181-292 423-292 255 0 401 118 401 364v466zm-683-27c0 109 63 184 175 182 166-3 259-96 306-217 24-65 20-120 20-200-232 7-501-28-501 235" id="bk"/><g id="o"><use transform="matrix(0.008173828125000001,0,0,0.008173828125000001,0,0)" xlink:href="#bj"/><use transform="matrix(0.008173828125000001,0,0,0.008173828125000001,10.045634765625001,0)" xlink:href="#bk"/><use transform="matrix(0.008173828125000001,0,0,0.008173828125000001,20.091269531250003,0)" xlink:href="#bg"/><use transform="matrix(0.008173828125000001,0,0,0.008173828125000001,30.136904296875002,0)" xlink:href="#bh"/><use transform="matrix(0.008173828125000001,0,0,0.008173828125000001,40.182539062500005,0)" xlink:href="#aL"/></g><path fill="#e6e6e6" d="M726 122c-7 187-108 303-294 303H167V286h213c129-2 172-59 172-195v-347c5-160 106-236 230-276-125-36-230-116-230-272v-346c2-128-45-195-172-195H167v-139h265c187 7 294 114 294 303v352c4 162 120 221 275 231v137c-155 10-275 68-275 232v351" id="bl"/><g id="p"><use transform="matrix(0.008173828125000001,0,0,0.008173828125000001,0,0)" xlink:href="#bl"/><use transform="matrix(0.008173828125000001,0,0,0.008173828125000001,10.045634765625001,0)" xlink:href="#aT"/></g><path fill="#e6e6e6" d="M802-711c201 25 350 118 350 331C1152-95 921 0 634 0H162v-1349c401 9 908-74 908 327 0 184-111 275-268 311zm-224-69c174-2 300-51 300-218 0-163-124-198-302-198H353v416h225zM353-153c281-2 612 44 606-244-5-271-329-233-606-234v478" id="bm"/><path fill="#e6e6e6" d="M736-142h380V0H134v-142h422v-1200H267v-142h469v1342" id="bn"/><g id="q"><use transform="matrix(0.008173828125000001,0,0,0.008173828125000001,0,0)" xlink:href="#aw"/><use transform="matrix(0.008173828125000001,0,0,0.008173828125000001,10.045634765625001,0)" xlink:href="#aF"/><use transform="matrix(0.008173828125000001,0,0,0.008173828125000001,20.091269531250003,0)" xlink:href="#aV"/><use transform="matrix(0.008173828125000001,0,0,0.008173828125000001,30.136904296875002,0)" xlink:href="#aE"/><use transform="matrix(0.008173828125000001,0,0,0.008173828125000001,40.182539062500005,0)" xlink:href="#aI"/><use transform="matrix(0.008173828125000001,0,0,0.008173828125000001,50.22817382812501,0)" xlink:href="#aU"/><use transform="matrix(0.008173828125000001,0,0,0.008173828125000001,60.27380859375001,0)" xlink:href="#bm"/><use transform="matrix(0.008173828125000001,0,0,0.008173828125000001,70.31944335937501,0)" xlink:href="#aU"/><use transform="matrix(0.008173828125000001,0,0,0.008173828125000001,80.36507812500001,0)" xlink:href="#aV"/><use transform="matrix(0.008173828125000001,0,0,0.008173828125000001,90.410712890625,0)" xlink:href="#ay"/><use transform="matrix(0.008173828125000001,0,0,0.008173828125000001,100.45634765625,0)" xlink:href="#az"/><use transform="matrix(0.008173828125000001,0,0,0.008173828125000001,110.501982421875,0)" xlink:href="#aC"/><use transform="matrix(0.008173828125000001,0,0,0.008173828125000001,120.5476171875,0)" xlink:href="#aE"/><use transform="matrix(0.008173828125000001,0,0,0.008173828125000001,130.593251953125,0)" xlink:href="#aU"/><use transform="matrix(0.008173828125000001,0,0,0.008173828125000001,140.63888671875,0)" xlink:href="#aF"/><use transform="matrix(0.008173828125000001,0,0,0.008173828125000001,150.684521484375,0)" xlink:href="#bn"/><use transform="matrix(0.008173828125000001,0,0,0.008173828125000001,160.73015625000002,0)" xlink:href="#aD"/><use transform="matrix(0.008173828125000001,0,0,0.008173828125000001,170.77579101562503,0)" xlink:href="#aw"/><use transform="matrix(0.008173828125000001,0,0,0.008173828125000001,180.82142578125004,0)" xlink:href="#aH"/></g><path fill="#e6e6e6" d="M202-1349h823v156H709v1037h316V0H202v-156h316v-1037H202v-156" id="bo"/><g id="r"><use transform="matrix(0.008173828125000001,0,0,0.008173828125000001,0,0)" xlink:href="#aw"/><use transform="matrix(0.008173828125000001,0,0,0.008173828125000001,10.045634765625001,0)" xlink:href="#aG"/><use transform="matrix(0.008173828125000001,0,0,0.008173828125000001,20.091269531250003,0)" xlink:href="#ax"/><use transform="matrix(0.008173828125000001,0,0,0.008173828125000001,30.136904296875002,0)" xlink:href="#aD"/><use transform="matrix(0.008173828125000001,0,0,0.008173828125000001,40.182539062500005,0)" xlink:href="#aE"/><use transform="matrix(0.008173828125000001,0,0,0.008173828125000001,50.22817382812501,0)" xlink:href="#aA"/><use transform="matrix(0.008173828125000001,0,0,0.008173828125000001,60.27380859375001,0)" xlink:href="#aB"/><use transform="matrix(0.008173828125000001,0,0,0.008173828125000001,70.31944335937501,0)" xlink:href="#aC"/><use transform="matrix(0.008173828125000001,0,0,0.008173828125000001,80.36507812500001,0)" xlink:href="#aI"/><use transform="matrix(0.008173828125000001,0,0,0.008173828125000001,90.410712890625,0)" xlink:href="#bo"/><use transform="matrix(0.008173828125000001,0,0,0.008173828125000001,100.45634765625,0)" xlink:href="#aK"/><use transform="matrix(0.008173828125000001,0,0,0.008173828125000001,110.501982421875,0)" xlink:href="#aw"/><use transform="matrix(0.008173828125000001,0,0,0.008173828125000001,120.5476171875,0)" xlink:href="#aH"/></g><g id="s"><use transform="matrix(0.008173828125000001,0,0,0.008173828125000001,0,0)" xlink:href="#aL"/><use transform="matrix(0.008173828125000001,0,0,0.008173828125000001,10.045634765625001,0)" xlink:href="#aM"/><use transform="matrix(0.008173828125000001,0,0,0.008173828125000001,20.091269531250003,0)" xlink:href="#aP"/><use transform="matrix(0.008173828125000001,0,0,0.008173828125000001,30.136904296875002,0)" xlink:href="#aN"/><use transform="matrix(0.008173828125000001,0,0,0.008173828125000001,40.182539062500005,0)" xlink:href="#aQ"/><use transform="matrix(0.008173828125000001,0,0,0.008173828125000001,50.22817382812501,0)" xlink:href="#aR"/><use transform="matrix(0.008173828125000001,0,0,0.008173828125000001,60.27380859375001,0)" xlink:href="#aS"/><use transform="matrix(0.008173828125000001,0,0,0.008173828125000001,70.31944335937501,0)" xlink:href="#aL"/><use transform="matrix(0.008173828125000001,0,0,0.008173828125000001,80.36507812500001,0)" xlink:href="#aT"/></g><g id="t"><use transform="matrix(0.008173828125000001,0,0,0.008173828125000001,0,0)" xlink:href="#aw"/><use transform="matrix(0.008173828125000001,0,0,0.008173828125000001,10.045634765625001,0)" xlink:href="#aU"/><use transform="matrix(0.008173828125000001,0,0,0.008173828125000001,20.091269531250003,0)" xlink:href="#aG"/><use transform="matrix(0.008173828125000001,0,0,0.008173828125000001,30.136904296875002,0)" xlink:href="#aG"/><use transform="matrix(0.008173828125000001,0,0,0.008173828125000001,40.182539062500005,0)" xlink:href="#aA"/><use transform="matrix(0.008173828125000001,0,0,0.008173828125000001,50.22817382812501,0)" xlink:href="#ax"/><use transform="matrix(0.008173828125000001,0,0,0.008173828125000001,60.27380859375001,0)" xlink:href="#aV"/><use transform="matrix(0.008173828125000001,0,0,0.008173828125000001,70.31944335937501,0)" xlink:href="#aE"/><use transform="matrix(0.008173828125000001,0,0,0.008173828125000001,80.36507812500001,0)" xlink:href="#bo"/><use transform="matrix(0.008173828125000001,0,0,0.008173828125000001,90.410712890625,0)" xlink:href="#aK"/><use transform="matrix(0.008173828125000001,0,0,0.008173828125000001,100.45634765625,0)" xlink:href="#aw"/><use transform="matrix(0.008173828125000001,0,0,0.008173828125000001,110.501982421875,0)" xlink:href="#aH"/></g><path fill="#19f9d8" d="M631 20c-350 0-501-215-501-562 0-355 162-560 502-560 250 0 399 118 446 323l-192 14c-23-124-109-196-262-196-242 0-305 171-305 415 1 245 61 427 304 427 151 0 248-77 267-215l190 12C1039-107 883 20 631 20" id="bp"/><path fill="#19f9d8" d="M839-1335c-182-6-269 67-259 253h491v142H580V0H400v-940H138v-142h262c-15-293 132-408 418-402 94 2 200 7 281 21v145c-75-10-177-14-260-17" id="bq"/><path fill="#19f9d8" d="M865-914c-3-187-2-380-2-570h180v1261c0 76 1 155 6 223H877c-8-49-9-116-10-174h-5C801-44 708 26 530 26c-135 0-234-46-297-139s-95-232-95-419c0-377 131-566 392-566 176 0 271 63 335 184zm-286-51c-222 0-255 197-255 427 0 229 31 425 253 425 237 0 286-195 286-441 0-238-52-411-284-411" id="br"/><path fill="#19f9d8" d="M365-904c58-129 161-200 334-200 130 0 228 46 293 138s98 233 98 420c0 189-34 331-102 425S824 20 698 20c-170 0-275-64-336-184 0 55-3 116-9 164H179c5-68 6-147 6-223v-1261h180c-2 193 4 394-4 580h4zm283 791c221 0 256-197 256-427 0-229-34-425-254-425-236 0-285 195-285 441 0 237 53 411 283 411" id="bs"/><path fill="#19f9d8" d="M1065-1013c47 164 49 500-1 665C999-130 875 20 611 20c-377 0-484-300-487-695-2-245 41-425 141-551 77-98 191-144 352-144 261 0 386 140 448 357zM741-155c199-92 203-504 159-785-26-168-96-284-283-284-281 0-308 256-311 549-2 181 18 324 80 428 46 77 115 118 227 120 47 0 90-10 128-28" id="bt"/><g id="u"><use transform="matrix(0.008173828125000001,0,0,0.008173828125000001,0,0)" xlink:href="#aL"/><use transform="matrix(0.008173828125000001,0,0,0.008173828125000001,10.045634765625001,0)" xlink:href="#aP"/><use transform="matrix(0.008173828125000001,0,0,0.008173828125000001,20.091269531250003,0)" xlink:href="#aN"/><use transform="matrix(0.008173828125000001,0,0,0.008173828125000001,30.136904296875002,0)" xlink:href="#aR"/><use transform="matrix(0.008173828125000001,0,0,0.008173828125000001,40.182539062500005,0)" xlink:href="#bp"/><use transform="matrix(0.008173828125000001,0,0,0.008173828125000001,50.22817382812501,0)" xlink:href="#ba"/><use transform="matrix(0.008173828125000001,0,0,0.008173828125000001,60.27380859375001,0)" xlink:href="#bq"/><use transform="matrix(0.008173828125000001,0,0,0.008173828125000001,70.31944335937501,0)" xlink:href="#br"/><use transform="matrix(0.008173828125000001,0,0,0.008173828125000001,80.36507812500001,0)" xlink:href="#aR"/><use transform="matrix(0.008173828125000001,0,0,0.008173828125000001,90.410712890625,0)" xlink:href="#aO"/><use transform="matrix(0.008173828125000001,0,0,0.008173828125000001,100.45634765625,0)" xlink:href="#bs"/><use transform="matrix(0.008173828125000001,0,0,0.008173828125000001,110.501982421875,0)" xlink:href="#ba"/><use transform="matrix(0.008173828125000001,0,0,0.008173828125000001,120.5476171875,0)" xlink:href="#bp"/><use transform="matrix(0.008173828125000001,0,0,0.008173828125000001,130.593251953125,0)" xlink:href="#ba"/><use transform="matrix(0.008173828125000001,0,0,0.008173828125000001,140.63888671875,0)" xlink:href="#aO"/><use transform="matrix(0.008173828125000001,0,0,0.008173828125000001,150.684521484375,0)" xlink:href="#aQ"/><use transform="matrix(0.008173828125000001,0,0,0.008173828125000001,160.73015625000002,0)" xlink:href="#aY"/><use transform="matrix(0.008173828125000001,0,0,0.008173828125000001,170.77579101562503,0)" xlink:href="#aY"/><use transform="matrix(0.008173828125000001,0,0,0.008173828125000001,180.82142578125004,0)" xlink:href="#aZ"/><use transform="matrix(0.008173828125000001,0,0,0.008173828125000001,190.86706054687505,0)" xlink:href="#aO"/><use transform="matrix(0.008173828125000001,0,0,0.008173828125000001,200.91269531250006,0)" xlink:href="#bk"/><use transform="matrix(0.008173828125000001,0,0,0.008173828125000001,210.95833007812507,0)" xlink:href="#ba"/><use transform="matrix(0.008173828125000001,0,0,0.008173828125000001,221.00396484375008,0)" xlink:href="#aY"/><use transform="matrix(0.008173828125000001,0,0,0.008173828125000001,231.0495996093751,0)" xlink:href="#aN"/><use transform="matrix(0.008173828125000001,0,0,0.008173828125000001,241.09523437500013,0)" xlink:href="#aO"/><use transform="matrix(0.008173828125000001,0,0,0.008173828125000001,251.1408691406251,0)" xlink:href="#aZ"/><use transform="matrix(0.008173828125000001,0,0,0.008173828125000001,261.1865039062501,0)" xlink:href="#ba"/><use transform="matrix(0.008173828125000001,0,0,0.008173828125000001,271.2321386718751,0)" xlink:href="#ba"/><use transform="matrix(0.008173828125000001,0,0,0.008173828125000001,281.27777343750006,0)" xlink:href="#bt"/><use transform="matrix(0.008173828125000001,0,0,0.008173828125000001,291.32340820312504,0)" xlink:href="#aR"/><use transform="matrix(0.008173828125000001,0,0,0.008173828125000001,301.36904296875,0)" xlink:href="#aN"/><use transform="matrix(0.008173828125000001,0,0,0.008173828125000001,311.414677734375,0)" xlink:href="#aY"/><use transform="matrix(0.008173828125000001,0,0,0.008173828125000001,321.4603125,0)" xlink:href="#aP"/><use transform="matrix(0.008173828125000001,0,0,0.008173828125000001,331.50594726562497,0)" xlink:href="#aR"/><use transform="matrix(0.008173828125000001,0,0,0.008173828125000001,341.55158203124995,0)" xlink:href="#aZ"/><use transform="matrix(0.008173828125000001,0,0,0.008173828125000001,351.59721679687493,0)" xlink:href="#aS"/><use transform="matrix(0.008173828125000001,0,0,0.008173828125000001,361.6428515624999,0)" xlink:href="#bk"/><use transform="matrix(0.008173828125000001,0,0,0.008173828125000001,371.68848632812484,0)" xlink:href="#aL"/></g><use transform="matrix(0.008173828125000001,0,0,0.008173828125000001,0,0)" xlink:href="#bl" id="v"/><use transform="matrix(0.008173828125000001,0,0,0.008173828125000001,0,0)" xlink:href="#bl" id="w"/><path fill="#6f7681" d="M148-1120c216-7 379-89 463-229h166v1204h353V0H157v-145h439v-1021c-79 124-254 184-448 194v-148" id="bu"/><use transform="matrix(0.008173828125000001,0,0,0.008173828125000001,0,0)" xlink:href="#bu" id="x"/><path fill="#6f7681" d="M611-1370c266 0 451 106 451 368 0 147-77 243-154 327-132 144-316 255-451 395-42 44-75 87-96 134h723V0H144v-117c124-264 387-411 582-603 73-72 151-147 151-271 0-161-104-231-266-231-163 0-249 90-268 238l-184-17c35-233 185-369 452-369" id="bv"/><use transform="matrix(0.008173828125000001,0,0,0.008173828125000001,0,0)" xlink:href="#bv" id="y"/><path fill="#6f7681" d="M1060-1016c0 191-128 285-295 323v4c154 18 262 91 313 209 14 35 21 72 21 110 0 277-194 390-478 390-292 0-457-129-493-382l186-17c24 161 121 250 307 250 172 1 298-80 291-247-8-208-220-239-446-233v-156c217 9 409-34 409-232 0-152-102-225-264-225-159 0-264 88-278 233l-181-14c33-239 196-367 461-367 264 0 447 102 447 354" id="bw"/><use transform="matrix(0.008173828125000001,0,0,0.008173828125000001,0,0)" xlink:href="#bw" id="z"/><path fill="#6f7681" d="M937-319V0H757v-319H103v-140l635-890h199v888h188v142H937zm-180-835L257-461h500v-693" id="bx"/><use transform="matrix(0.008173828125000001,0,0,0.008173828125000001,0,0)" xlink:href="#bx" id="A"/><path fill="#6f7681" d="M353-779c69-51 166-92 291-90 218 3 357 100 423 255 21 52 32 109 32 170 0 305-189 464-500 464-268 0-424-116-471-335l182-21c35 130 124 212 293 209 198-4 309-114 309-313 0-182-118-282-305-282-120 0-198 45-262 101H169l47-728h801v145H382" id="by"/><use transform="matrix(0.008173828125000001,0,0,0.008173828125000001,0,0)" xlink:href="#by" id="B"/><path fill="#6f7681" d="M672-881c271 0 424 163 424 435 0 291-160 466-455 466-367 0-490-287-490-662 0-324 85-568 293-680 129-70 351-59 460 16 73 50 125 123 153 223l-172 31c-31-108-107-172-232-172-259 0-316 252-323 529 59-113 178-186 342-186zm-37 756c186 0 278-124 278-313s-96-304-284-304c-163 0-281 93-281 261 0 157 65 270 168 327 35 19 75 29 119 29" id="bz"/><use transform="matrix(0.008173828125000001,0,0,0.008173828125000001,0,0)" xlink:href="#bz" id="C"/><path fill="#6f7681" d="M1069-1210C890-948 720-664 634-316c-25 105-38 210-38 316H408c9-385 153-667 302-925 57-98 120-190 185-279H158v-145h911v139" id="bA"/><use transform="matrix(0.008173828125000001,0,0,0.008173828125000001,0,0)" xlink:href="#bA" id="D"/><path fill="#6f7681" d="M809-709c168 33 285 134 285 331 0 277-191 398-480 398-287 0-481-120-481-396 0-192 118-296 281-331v-4c-145-39-248-139-248-313 0-238 192-346 444-346 211 0 357 75 422 217 19 41 27 86 27 131 0 172-101 274-250 309v4zm-197-70c168 0 260-73 260-233 0-158-100-224-262-224-160 0-260 68-260 224 0 155 97 232 262 233zm4 664c194 1 291-91 291-280 0-172-115-249-297-249-178 0-291 85-291 253 0 186 106 275 297 276" id="bB"/><use transform="matrix(0.008173828125000001,0,0,0.008173828125000001,0,0)" xlink:href="#bB" id="E"/><path fill="#6f7681" d="M141-911c0-296 172-459 469-459 157 0 276 55 356 166s121 278 121 501c-1 324-87 567-297 677-134 70-367 56-475-22-71-52-117-126-145-226l172-27c34 111 103 176 238 176 187 0 261-138 304-298 16-65 24-141 25-227-59 121-177 199-350 199-275 0-418-184-418-460zm461 318c168 0 289-96 289-269 0-158-59-275-163-332-36-20-77-30-124-30-187 0-280 125-280 313s90 318 278 318" id="bC"/><use transform="matrix(0.008173828125000001,0,0,0.008173828125000001,0,0)" xlink:href="#bC" id="F"/><path fill="#6f7681" d="M1065-1013c47 164 49 500-1 665C999-130 875 20 611 20c-377 0-484-300-487-695-2-245 41-425 141-551 77-98 191-144 352-144 261 0 386 140 448 357zM741-155c199-92 203-504 159-785-26-168-96-284-283-284-281 0-308 256-311 549-2 181 18 324 80 428 46 77 115 118 227 120 47 0 90-10 128-28" id="bD"/><g id="G"><use transform="matrix(0.008173828125000001,0,0,0.008173828125000001,0,0)" xlink:href="#bu"/><use transform="matrix(0.008173828125000001,0,0,0.008173828125000001,10.045634765625001,0)" xlink:href="#bD"/></g><g id="H"><use transform="matrix(0.008173828125000001,0,0,0.008173828125000001,0,0)" xlink:href="#bu"/><use transform="matrix(0.008173828125000001,0,0,0.008173828125000001,10.045634765625001,0)" xlink:href="#bu"/></g><g id="J"><use transform="matrix(0.01953125,0,0,0.01953125,0,0)" xlink:href="#R"/><use transform="matrix(0.01953125,0,0,0.01953125,9.43359375,0)" xlink:href="#N"/><use transform="matrix(0.01953125,0,0,0.01953125,27.55859375,0)" xlink:href="#O"/><use transform="matrix(0.01953125,0,0,0.01953125,44.6875,0)" xlink:href="#P"/><use transform="matrix(0.01953125,0,0,0.01953125,62.55859375,0)" xlink:href="#Q"/><use transform="matrix(0.01953125,0,0,0.01953125,72.83203125,0)" xlink:href="#R"/><use transform="matrix(0.01953125,0,0,0.01953125,82.265625,0)" xlink:href="#S"/><use transform="matrix(0.01953125,0,0,0.01953125,92.6171875,0)" xlink:href="#R"/><use transform="matrix(0.01953125,0,0,0.01953125,102.05078125,0)" xlink:href="#O"/><use transform="matrix(0.01953125,0,0,0.01953125,119.1796875,0)" xlink:href="#T"/></g><path fill="#fff" d="M352-991c112 0 166 71 211 160v-150h262v907c0 210-27 350-83 421S585 453 440 453C213 453 71 327 78 98h229c0 91 40 142 129 142 105 0 127-52 127-166v-203C511-55 454 10 350 10c-93 0-161-45-214-129-95-151-97-591 1-742 55-84 122-130 215-130zm184 703c29-68 32-353-1-422-36-77-145-83-179 1-30 76-28 341 4 416 37 88 139 91 176 5" id="bE"/><path fill="#fff" d="M135 395L256 0 2-981h266c38 206 102 387 115 618 25-239 77-402 119-618h266L399 395H135" id="bF"/><g id="K"><use transform="matrix(0.01953125,0,0,0.01953125,0,0)" xlink:href="#T"/><use transform="matrix(0.01953125,0,0,0.01953125,11.484375,0)" xlink:href="#O"/><use transform="matrix(0.01953125,0,0,0.01953125,28.61328125,0)" xlink:href="#bE"/><use transform="matrix(0.01953125,0,0,0.01953125,46.73828125,0)" xlink:href="#R"/><use transform="matrix(0.01953125,0,0,0.01953125,56.171875,0)" xlink:href="#ab"/><use transform="matrix(0.01953125,0,0,0.01953125,69.5703125,0)" xlink:href="#Q"/><use transform="matrix(0.01953125,0,0,0.01953125,79.84375,0)" xlink:href="#T"/><use transform="matrix(0.01953125,0,0,0.01953125,91.328125,0)" xlink:href="#bF"/></g><path d="M542-292c32-74 35-337-2-413-39-78-148-89-184-3-31 75-28 339 4 414 38 90 144 89 182 2zM352-991c115 0 166 72 219 160v-150h254V0H571v-145C523-57 464 18 350 18c-93 0-161-45-214-130-95-152-97-596 2-748 55-85 122-131 214-131" id="bG"/><path d="M569-708c-35-82-141-77-178 0-34 71-34 353-1 420 21 42 48 65 89 65 40 0 68-24 89-69 34-71 33-341 1-416zm13 731c-115 0-178-75-220-166v538H102V-981h254v150c53-88 104-160 219-160 93 0 161 46 214 131 96 154 96 594 1 750C737-23 671 23 582 23" id="bH"/><path d="M242-1090c-87 0-156-67-156-153 0-87 69-158 156-158 83 0 155 74 155 158 0 83-71 153-155 153zM106 0v-981h271V0H106" id="bI"/><g id="L"><use transform="matrix(0.032552083333333336,0,0,0.032552083333333336,0,0)" xlink:href="#bG"/><use transform="matrix(0.032552083333333336,0,0,0.032552083333333336,30.208333333333336,0)" xlink:href="#bH"/><use transform="matrix(0.032552083333333336,0,0,0.032552083333333336,60.41666666666667,0)" xlink:href="#bI"/></g></defs></g></svg>