<?xml version="1.0" encoding="UTF-8" standalone="no"?>
<!DOCTYPE svg PUBLIC "-//W3C//DTD SVG 1.1//EN" "http://www.w3.org/Graphics/SVG/1.1/DTD/svg11.dtd">
<svg xmlns="http://www.w3.org/2000/svg" version="1.1" viewBox="0 0 305 537" width="305.0pt" height="537.0pt" xmlns:xlink="http://www.w3.org/1999/xlink">
<defs>
<path d="M 0.00 0.00 L 305.00 0.00 L 305.00 537.00 L 0.00 537.00 L 0.00 0.00 Z M 302.33 55.00 C 302.30 48.42 302.42 42.10 300.23 35.78 C 296.31 22.54 286.20 10.80 273.22 5.84 C 265.77 2.98 258.79 3.72 251.00 3.49 C 226.00 3.07 201.00 3.27 176.00 3.22 C 132.67 3.34 89.33 2.97 46.00 3.60 C 31.20 3.03 17.26 12.49 10.12 25.09 C 5.11 33.26 2.87 41.39 2.89 51.00 C 2.61 128.00 2.85 205.00 2.75 282.00 C 2.84 347.00 2.63 412.00 2.89 477.00 C 2.85 485.89 3.71 494.52 7.27 502.75 C 10.06 508.76 13.15 514.39 17.88 519.11 C 27.18 528.91 40.53 534.29 54.00 534.19 C 120.00 534.43 186.00 534.43 252.00 534.18 C 269.57 534.39 286.41 524.04 294.99 508.88 C 299.30 500.71 302.29 491.30 302.24 482.00 C 302.40 471.00 302.43 460.00 302.56 449.01 C 302.58 345.00 302.54 241.00 302.59 137.00 C 302.46 109.67 302.72 82.33 302.33 55.00 Z" id="p0" />
<path d="M 176.00 3.22 C 201.00 3.27 226.00 3.07 251.00 3.49 C 258.79 3.72 265.77 2.98 273.22 5.84 C 286.20 10.80 296.31 22.54 300.23 35.78 C 302.42 42.10 302.30 48.42 302.33 55.00 C 302.72 82.33 302.46 109.67 302.59 137.00 C 302.54 241.00 302.58 345.00 302.56 449.01 C 302.43 460.00 302.40 471.00 302.24 482.00 C 302.29 491.30 299.30 500.71 294.99 508.88 C 286.41 524.04 269.57 534.39 252.00 534.18 C 186.00 534.43 120.00 534.43 54.00 534.19 C 40.53 534.29 27.18 528.91 17.88 519.11 C 13.15 514.39 10.06 508.76 7.27 502.75 C 3.71 494.52 2.85 485.89 2.89 477.00 C 2.63 412.00 2.84 347.00 2.75 282.00 C 2.85 205.00 2.61 128.00 2.89 51.00 C 2.87 41.39 5.11 33.26 10.12 25.09 C 17.26 12.49 31.20 3.03 46.00 3.60 C 89.33 2.97 132.67 3.34 176.00 3.22 Z M 300.35 469.00 C 300.35 330.00 300.31 191.00 300.34 52.00 C 300.35 37.26 294.19 22.75 282.33 13.69 C 275.71 8.62 267.33 5.75 259.00 5.60 C 188.05 5.68 116.96 5.64 46.00 5.61 C 38.87 5.53 31.90 8.15 25.93 11.88 C 16.52 18.26 9.88 28.03 6.78 38.92 C 5.07 44.96 5.23 50.80 5.24 57.00 C 5.22 197.99 5.25 339.02 5.26 480.02 C 5.05 492.58 9.16 505.08 17.26 514.74 C 23.11 522.02 31.15 527.08 39.98 529.96 C 46.72 531.91 54.02 532.34 61.00 532.26 C 123.33 532.21 185.67 532.28 248.00 532.23 C 253.90 532.06 260.16 531.66 265.78 529.75 C 278.16 525.28 288.79 516.50 294.55 504.55 C 300.07 493.21 300.70 481.39 300.35 469.00 Z" id="p1" />
<path d="M 46.00 5.61 C 116.96 5.64 188.05 5.68 259.00 5.60 C 267.33 5.75 275.71 8.62 282.33 13.69 C 294.19 22.75 300.35 37.26 300.34 52.00 C 300.31 191.00 300.35 330.00 300.35 469.00 C 300.70 481.39 300.07 493.21 294.55 504.55 C 288.79 516.50 278.16 525.28 265.78 529.75 C 260.16 531.66 253.90 532.06 248.00 532.23 C 185.67 532.28 123.33 532.21 61.00 532.26 C 54.02 532.34 46.72 531.91 39.98 529.96 C 31.15 527.08 23.11 522.02 17.26 514.74 C 9.16 505.08 5.05 492.58 5.26 480.02 C 5.25 339.02 5.22 197.99 5.24 57.00 C 5.23 50.80 5.07 44.96 6.78 38.92 C 9.88 28.03 16.52 18.26 25.93 11.88 C 31.90 8.15 38.87 5.53 46.00 5.61 Z M 290.42 472.98 C 290.54 335.33 290.46 197.65 290.47 60.00 C 290.26 52.50 291.09 45.65 288.31 38.50 C 285.36 29.70 279.13 22.22 270.58 18.45 C 264.76 15.89 258.34 14.69 252.00 14.70 C 185.33 14.68 118.67 14.66 52.00 14.67 C 42.32 14.85 32.88 17.99 25.98 24.98 C 17.98 32.98 14.66 43.84 14.75 55.00 C 14.68 194.31 14.70 333.69 14.74 473.00 C 14.65 482.86 16.76 492.57 22.10 500.95 C 27.19 508.94 34.03 515.61 42.99 519.05 C 49.34 521.76 56.13 522.72 63.00 522.58 C 120.34 522.58 177.67 522.52 235.00 522.57 C 242.25 522.35 250.09 523.10 257.05 521.39 C 267.53 518.95 277.01 512.97 282.95 503.89 C 288.95 494.58 290.84 483.92 290.42 472.98 Z" id="p2" />
<path d="M 52.00 14.67 C 118.67 14.66 185.33 14.68 252.00 14.70 C 258.34 14.69 264.76 15.89 270.58 18.45 C 279.13 22.22 285.36 29.70 288.31 38.50 C 291.09 45.65 290.26 52.50 290.47 60.00 C 290.46 197.65 290.54 335.33 290.42 472.98 C 290.84 483.92 288.95 494.58 282.95 503.89 C 277.01 512.97 267.53 518.95 257.05 521.39 C 250.09 523.10 242.25 522.35 235.00 522.57 C 177.67 522.52 120.34 522.58 63.00 522.58 C 56.13 522.72 49.34 521.76 42.99 519.05 C 34.03 515.61 27.19 508.94 22.10 500.95 C 16.76 492.57 14.65 482.86 14.74 473.00 C 14.70 333.69 14.68 194.31 14.75 55.00 C 14.66 43.84 17.98 32.98 25.98 24.98 C 32.88 17.99 42.32 14.85 52.00 14.67 Z M 17.04 61.01 C 16.85 69.99 16.78 79.00 17.04 87.98 C 17.02 161.97 17.12 238.51 17.07 313.00 C 17.29 331.00 16.86 349.02 17.11 367.00 C 16.86 378.99 17.40 391.00 16.90 403.00 C 17.16 426.21 17.08 450.89 17.13 474.00 C 17.16 483.12 19.26 492.06 24.24 499.77 C 29.13 507.31 36.35 513.96 44.77 517.28 C 50.72 519.68 57.65 520.22 64.00 520.24 C 121.33 520.16 178.67 520.18 236.00 520.19 C 244.46 520.13 252.71 520.88 260.81 517.83 C 272.32 513.97 282.12 504.25 285.58 492.55 C 288.22 484.63 288.25 476.26 288.17 468.00 C 288.10 329.67 288.16 191.33 288.14 53.00 C 288.01 46.11 287.10 39.51 283.50 33.51 C 279.52 26.39 272.80 21.45 265.19 18.80 C 257.82 16.44 250.67 17.30 243.00 17.18 C 181.01 17.19 118.99 17.22 57.00 17.16 C 51.27 17.20 45.99 16.78 40.44 18.60 C 31.47 21.69 24.00 28.70 20.35 37.46 C 17.00 45.08 16.81 52.84 17.04 61.01 Z" id="p3" />
<path d="M 57.00 17.16 C 118.99 17.22 181.01 17.19 243.00 17.18 C 250.67 17.30 257.82 16.44 265.19 18.80 C 272.80 21.45 279.52 26.39 283.50 33.51 C 287.10 39.51 288.01 46.11 288.14 53.00 C 288.16 191.33 288.10 329.67 288.17 468.00 C 288.25 476.26 288.22 484.63 285.58 492.55 C 282.12 504.25 272.32 513.97 260.81 517.83 C 252.71 520.88 244.46 520.13 236.00 520.19 C 178.67 520.18 121.33 520.16 64.00 520.24 C 57.65 520.22 50.72 519.68 44.77 517.28 C 36.35 513.96 29.13 507.31 24.24 499.77 C 19.26 492.06 17.16 483.12 17.13 474.00 C 17.08 450.89 17.16 426.21 16.90 403.00 C 17.40 391.00 16.86 378.99 17.11 367.00 C 16.86 349.02 17.29 331.00 17.07 313.00 C 17.12 238.51 17.02 161.97 17.04 87.98 C 16.78 79.00 16.85 69.99 17.04 61.01 C 16.81 52.84 17.00 45.08 20.35 37.46 C 24.00 28.70 31.47 21.69 40.44 18.60 C 45.99 16.78 51.27 17.20 57.00 17.16 Z M 219.38 237.68 C 212.93 231.57 202.42 231.90 196.39 238.40 C 190.43 244.21 190.34 254.13 195.60 260.39 C 200.01 265.33 207.94 267.67 214.13 265.00 C 216.55 264.01 218.27 262.06 220.09 260.26 C 219.74 262.04 219.45 263.83 219.15 265.62 C 221.21 265.57 223.27 265.51 225.34 265.46 C 225.15 252.31 225.31 239.15 225.20 226.00 C 225.13 222.83 225.54 219.77 224.60 216.81 C 222.83 216.78 221.07 216.75 219.30 216.72 C 218.54 223.41 218.60 230.99 219.38 237.68 Z M 109.32 260.00 C 108.55 264.17 108.66 268.21 105.26 271.25 C 99.97 276.55 90.52 274.76 86.96 268.36 C 85.26 269.22 83.55 270.06 81.84 270.91 C 85.68 278.06 95.06 282.21 102.81 279.43 C 107.69 277.87 112.31 273.98 113.86 268.99 C 115.08 265.35 114.86 261.80 114.90 258.00 C 114.87 249.91 114.88 241.82 114.88 233.72 C 112.81 233.70 110.74 233.68 108.68 233.69 C 108.66 235.28 108.65 236.86 108.64 238.45 C 102.64 230.90 90.02 232.05 84.09 239.09 C 78.33 245.42 78.96 256.04 85.18 261.82 C 89.65 266.45 97.33 268.34 103.12 265.12 C 105.66 263.92 107.42 262.00 109.32 260.00 Z M 131.54 233.81 C 124.01 235.97 117.98 243.98 119.46 251.99 C 120.57 261.09 130.11 267.72 139.02 265.85 C 146.30 264.73 152.45 258.34 153.33 251.04 C 153.65 244.46 149.83 237.97 143.90 235.08 C 140.17 233.13 135.59 232.82 131.54 233.81 Z M 168.47 233.68 C 160.64 235.68 154.25 243.76 155.85 252.01 C 156.96 259.16 162.97 264.65 169.96 265.94 C 179.74 267.62 189.22 259.96 189.44 250.00 C 189.65 239.42 178.65 231.18 168.47 233.68 Z M 110.92 294.85 C 110.89 293.00 110.87 291.16 110.83 289.31 C 108.82 289.25 106.81 289.22 104.80 289.21 C 104.81 305.90 104.89 322.59 104.77 339.28 C 106.90 339.28 109.03 339.27 111.15 339.26 C 111.19 332.14 111.10 325.01 111.13 317.88 C 114.37 321.23 118.19 323.64 123.00 323.62 C 130.47 323.82 137.59 318.99 139.84 311.83 C 142.41 304.39 138.67 295.94 132.28 291.74 C 128.07 289.16 122.58 288.41 117.87 289.97 C 115.00 290.91 113.06 292.82 110.92 294.85 Z M 173.57 318.09 C 173.57 319.77 173.58 321.46 173.58 323.14 C 175.54 323.14 177.50 323.13 179.46 323.12 C 179.24 311.82 179.45 300.52 179.38 289.22 C 177.41 289.21 175.43 289.21 173.45 289.21 C 173.39 291.05 173.33 292.88 173.28 294.72 C 167.06 287.38 155.68 287.59 148.77 293.78 C 141.58 300.20 141.98 312.67 148.90 319.13 C 153.09 323.10 159.49 324.45 165.04 323.20 C 168.42 322.33 171.00 320.34 173.57 318.09 Z M 183.15 288.84 C 186.67 297.96 191.48 306.61 195.63 315.45 C 196.73 318.17 198.68 320.48 197.30 323.47 C 195.23 328.80 193.08 334.11 191.04 339.45 C 193.14 339.45 195.25 339.45 197.35 339.45 C 199.78 333.14 202.27 326.86 204.54 320.48 C 208.48 309.95 212.85 299.57 217.07 289.14 C 215.00 289.15 212.93 289.17 210.87 289.22 C 207.51 297.50 204.15 305.79 200.87 314.10 C 197.42 305.74 193.65 297.57 189.91 289.35 C 187.65 289.23 185.41 288.93 183.15 288.84 Z" id="p4" />
<path d="M 219.30 216.72 C 221.07 216.75 222.83 216.78 224.60 216.81 C 225.54 219.77 225.13 222.83 225.20 226.00 C 225.31 239.15 225.15 252.31 225.34 265.46 C 223.27 265.51 221.21 265.57 219.15 265.62 C 219.45 263.83 219.74 262.04 220.09 260.26 C 218.27 262.06 216.55 264.01 214.13 265.00 C 207.94 267.67 200.01 265.33 195.60 260.39 C 190.34 254.13 190.43 244.21 196.39 238.40 C 202.42 231.90 212.93 231.57 219.38 237.68 C 218.60 230.99 218.54 223.41 219.30 216.72 Z M 203.55 240.68 C 200.41 242.43 198.02 245.27 197.83 248.99 C 197.45 255.30 203.89 260.76 210.03 259.73 C 215.73 259.14 220.49 253.82 219.34 247.94 C 218.43 240.77 209.54 237.60 203.55 240.68 Z" id="p5" />
<path d="M 108.64 238.45 C 108.65 236.86 108.66 235.28 108.68 233.69 C 110.74 233.68 112.81 233.70 114.88 233.72 C 114.88 241.82 114.87 249.91 114.90 258.00 C 114.86 261.80 115.08 265.35 113.86 268.99 C 112.31 273.98 107.69 277.87 102.81 279.43 C 95.06 282.21 85.68 278.06 81.84 270.91 C 83.55 270.06 85.26 269.22 86.96 268.36 C 90.52 274.76 99.97 276.55 105.26 271.25 C 108.66 268.21 108.55 264.17 109.32 260.00 C 107.42 262.00 105.66 263.92 103.12 265.12 C 97.33 268.34 89.65 266.45 85.18 261.82 C 78.96 256.04 78.33 245.42 84.09 239.09 C 90.02 232.05 102.64 230.90 108.64 238.45 Z M 93.18 240.23 C 87.10 242.45 83.92 249.55 87.84 255.12 C 92.32 261.94 103.46 261.36 107.43 254.42 C 109.84 250.63 108.74 245.44 105.40 242.57 C 102.23 239.81 97.12 238.63 93.18 240.23 Z" id="p6" />
<path d="M 131.54 233.81 C 135.59 232.82 140.17 233.13 143.90 235.08 C 149.83 237.97 153.65 244.46 153.33 251.04 C 152.45 258.34 146.30 264.73 139.02 265.85 C 130.11 267.72 120.57 261.09 119.46 251.99 C 117.98 243.98 124.01 235.97 131.54 233.81 Z M 131.44 240.51 C 125.13 243.05 123.23 252.04 128.34 256.67 C 132.42 260.90 139.72 260.91 143.96 256.98 C 146.69 254.13 147.98 249.99 146.49 246.20 C 144.11 240.62 136.96 237.77 131.44 240.51 Z" id="p7" />
<path d="M 168.47 233.68 C 178.65 231.18 189.65 239.42 189.44 250.00 C 189.22 259.96 179.74 267.62 169.96 265.94 C 162.97 264.65 156.96 259.16 155.85 252.01 C 154.25 243.76 160.64 235.68 168.47 233.68 Z M 167.51 240.70 C 164.81 242.16 162.39 244.80 161.88 247.91 C 160.95 253.81 165.96 259.81 171.97 259.84 C 178.04 260.47 183.97 255.16 183.36 248.95 C 182.91 241.60 173.70 237.21 167.51 240.70 Z" id="p8" />
<path d="M 93.18 240.23 C 97.12 238.63 102.23 239.81 105.40 242.57 C 108.74 245.44 109.84 250.63 107.43 254.42 C 103.46 261.36 92.32 261.94 87.84 255.12 C 83.92 249.55 87.10 242.45 93.18 240.23 Z" id="p9" />
<path d="M 131.44 240.51 C 136.96 237.77 144.11 240.62 146.49 246.20 C 147.98 249.99 146.69 254.13 143.96 256.98 C 139.72 260.91 132.42 260.90 128.34 256.67 C 123.23 252.04 125.13 243.05 131.44 240.51 Z" id="p10" />
<path d="M 167.51 240.70 C 173.70 237.21 182.91 241.60 183.36 248.95 C 183.97 255.16 178.04 260.47 171.97 259.84 C 165.96 259.81 160.95 253.81 161.88 247.91 C 162.39 244.80 164.81 242.16 167.51 240.70 Z" id="p11" />
<path d="M 203.55 240.68 C 209.54 237.60 218.43 240.77 219.34 247.94 C 220.49 253.82 215.73 259.14 210.03 259.73 C 203.89 260.76 197.45 255.30 197.83 248.99 C 198.02 245.27 200.41 242.43 203.55 240.68 Z" id="p12" />
<path d="M 132.28 291.74 C 138.67 295.94 142.41 304.39 139.84 311.83 C 137.59 318.99 130.47 323.82 123.00 323.62 C 118.19 323.64 114.37 321.23 111.13 317.88 C 111.10 325.01 111.19 332.14 111.15 339.26 C 109.03 339.27 106.90 339.28 104.77 339.28 C 104.89 322.59 104.81 305.90 104.80 289.21 C 106.81 289.22 108.82 289.25 110.83 289.31 C 110.87 291.16 110.89 293.00 110.92 294.85 C 113.06 292.82 115.00 290.91 117.87 289.97 C 122.58 288.41 128.07 289.16 132.28 291.74 Z M 119.46 295.57 C 114.20 297.05 110.32 302.53 111.22 308.03 C 111.96 316.09 123.39 320.60 129.60 315.61 C 133.22 312.86 135.61 308.52 134.31 303.90 C 132.50 297.56 125.89 293.68 119.46 295.57 Z" id="p13" />
<path d="M 173.28 294.72 C 173.33 292.88 173.39 291.05 173.45 289.21 C 175.43 289.21 177.41 289.21 179.38 289.22 C 179.45 300.52 179.24 311.82 179.46 323.12 C 177.50 323.13 175.54 323.14 173.58 323.14 C 173.58 321.46 173.57 319.77 173.57 318.09 C 171.00 320.34 168.42 322.33 165.04 323.20 C 159.49 324.45 153.09 323.10 148.90 319.13 C 141.98 312.67 141.58 300.20 148.77 293.78 C 155.68 287.59 167.06 287.38 173.28 294.72 Z M 157.44 295.53 C 150.39 297.69 147.05 306.49 151.32 312.63 C 155.57 318.86 164.94 319.62 170.09 314.08 C 175.05 309.50 173.85 301.17 168.65 297.33 C 165.54 294.99 161.12 294.65 157.44 295.53 Z" id="p14" />
<path d="M 183.15 288.84 C 185.41 288.93 187.65 289.23 189.91 289.35 C 193.65 297.57 197.42 305.74 200.87 314.10 C 204.15 305.79 207.51 297.50 210.87 289.22 C 212.93 289.17 215.00 289.15 217.07 289.14 C 212.85 299.57 208.48 309.95 204.54 320.48 C 202.27 326.86 199.78 333.14 197.35 339.45 C 195.25 339.45 193.14 339.45 191.04 339.45 C 193.08 334.11 195.23 328.80 197.30 323.47 C 198.68 320.48 196.73 318.17 195.63 315.45 C 191.48 306.61 186.67 297.96 183.15 288.84 Z" id="p15" />
<path d="M 119.46 295.57 C 125.89 293.68 132.50 297.56 134.31 303.90 C 135.61 308.52 133.22 312.86 129.60 315.61 C 123.39 320.60 111.96 316.09 111.22 308.03 C 110.32 302.53 114.20 297.05 119.46 295.57 Z" id="p16" />
<path d="M 157.44 295.53 C 161.12 294.65 165.54 294.99 168.65 297.33 C 173.85 301.17 175.05 309.50 170.09 314.08 C 164.94 319.62 155.57 318.86 151.32 312.63 C 147.05 306.49 150.39 297.69 157.44 295.53 Z" id="p17" />
</defs>
<g stroke-width="10pt">
<use stroke="#f5f5f5" xlink:href="#p0" />
<use stroke="#040303" xlink:href="#p1" />
<use stroke="#f5f5f5" xlink:href="#p2" />
<use stroke="#040303" xlink:href="#p3" />
<use stroke="#f5f5f5" xlink:href="#p4" />
<use stroke="#040303" xlink:href="#p5" />
<use stroke="#040303" xlink:href="#p6" />
<use stroke="#040303" xlink:href="#p7" />
<use stroke="#040303" xlink:href="#p8" />
<use stroke="#f5f5f5" xlink:href="#p9" />
<use stroke="#f5f5f5" xlink:href="#p10" />
<use stroke="#f5f5f5" xlink:href="#p11" />
<use stroke="#f5f5f5" xlink:href="#p12" />
<use stroke="#040303" xlink:href="#p13" />
<use stroke="#040303" xlink:href="#p14" />
<use stroke="#040303" xlink:href="#p15" />
<use stroke="#f5f5f5" xlink:href="#p16" />
<use stroke="#f5f5f5" xlink:href="#p17" />
</g>
<g>
<use fill="#f5f5f5" xlink:href="#p0" />
<use fill="#040303" xlink:href="#p1" />
<use fill="#f5f5f5" xlink:href="#p2" />
<use fill="#040303" xlink:href="#p3" />
<use fill="#f5f5f5" xlink:href="#p4" />
<use fill="#040303" xlink:href="#p5" />
<use fill="#040303" xlink:href="#p6" />
<use fill="#040303" xlink:href="#p7" />
<use fill="#040303" xlink:href="#p8" />
<use fill="#f5f5f5" xlink:href="#p9" />
<use fill="#f5f5f5" xlink:href="#p10" />
<use fill="#f5f5f5" xlink:href="#p11" />
<use fill="#f5f5f5" xlink:href="#p12" />
<use fill="#040303" xlink:href="#p13" />
<use fill="#040303" xlink:href="#p14" />
<use fill="#040303" xlink:href="#p15" />
<use fill="#f5f5f5" xlink:href="#p16" />
<use fill="#f5f5f5" xlink:href="#p17" />
</g>
</svg>